<?xml version="1.0"?>
<svg xmlns="http://www.w3.org/2000/svg" xmlns:xlink="http://www.w3.org/1999/xlink" version="1.1" id="Capa_1" x="0px" y="0px" viewBox="0 0 504.161 504.161" style="enable-background:new 0 0 504.161 504.161;" xml:space="preserve" width="512px" height="512px" class=""><g><g>
	<g transform="translate(1 1)">
		<path style="fill:#FFFFFF" d="M24.18,7.67h302.164c9.271,0,16.787,7.516,16.787,16.787v453.246    c0,9.271-7.516,16.787-16.787,16.787H24.18c-9.271,0-16.787-7.516-16.787-16.787V24.457C7.393,15.186,14.909,7.67,24.18,7.67z" data-original="#FFB301" class="" data-old_color="#FFB301"/>
		<path style="fill:#FFFFFF" d="M24.18,7.67h276.984c9.271,0,16.787,7.516,16.787,16.787v453.246    c0,9.271-7.516,16.787-16.787,16.787H24.18c-9.271,0-16.787-7.516-16.787-16.787V24.457C7.393,15.186,14.909,7.67,24.18,7.67z" data-original="#FEC108" class="" data-old_color="#FEC108"/>
		<polygon style="fill:#FFECB3;" points="93.367,377.83 57.754,460.916 140.841,425.303 150.082,410.556 108.115,368.589   " data-original="#FFECB3" class=""/>
		<polygon style="fill:#FFB301" points="475.999,90.178 140.849,425.328 93.342,377.821 428.492,42.671 455.016,69.194   " data-original="#FDD834" class="" data-old_color="#FDD834"/>
		<polygon style="fill:#FFCC00" points="455.016,69.194 408.852,115.358 119.866,404.345 93.342,377.821 428.492,42.671   " data-original="#FFEB3A" class="" data-old_color="#FFEB3A"/>
		
			<rect x="414.053" y="98.197" transform="matrix(-0.7071 0.7071 -0.7071 -0.7071 817.6605 -112.6125)" style="fill:#FFFFFF" width="36.201" height="29.679" data-original="#9E9E9E" class="active-path" data-old_color="#9E9E9E"/>
		
			<rect x="390.288" y="70.543" transform="matrix(-0.7071 0.7071 -0.7071 -0.7071 760.3064 -136.3329)" style="fill:#F5F5F5;" width="36.201" height="37.51" data-original="#F5F5F5"/>
		<path style="fill:#FFFFFF" d="M485.064,81.113l-29.629,29.629l-20.648-20.648l-26.859-26.859l29.629-29.629    c8.486-8.486,20.855-11.801,32.448-8.694c11.592,3.106,20.647,12.161,23.753,23.753C496.865,60.258,493.551,72.627,485.064,81.113    z" data-original="#AD1457" class="" data-old_color="#AD1457"/>
		<path style="fill:#FFFFFF" d="M464.416,60.465l-29.629,29.629l-26.859-26.859l29.629-29.629    c9.127-9.107,22.653-12.204,34.833-7.974C476.62,37.812,473.524,51.338,464.416,60.465z" data-original="#E91E63" class="" data-old_color="#E91E63"/>
	</g>
	<g>
		<path d="M25.18,503.884h302.164c13.907,0,25.18-11.274,25.18-25.18V277.261c0-4.636-3.758-8.393-8.393-8.393    s-8.393,3.758-8.393,8.393v201.443c0,4.636-3.758,8.393-8.393,8.393H25.18c-4.636,0-8.393-3.758-8.393-8.393V25.457    c0-4.636,3.758-8.393,8.393-8.393h302.164c4.636,0,8.393,3.758,8.393,8.393v50.361c0,4.636,3.758,8.393,8.393,8.393    s8.393-3.758,8.393-8.393V25.457c0-13.907-11.274-25.18-25.18-25.18H25.18C11.274,0.277,0,11.551,0,25.457v453.246    C0,492.61,11.274,503.884,25.18,503.884z" data-original="#000000" class="" style="fill:#000000" data-old_color="#000000"/>
		<path d="M432.665,28.655l-55.262,55.254L88.433,372.896c-0.084,0.076-0.109,0.185-0.185,0.26    c-0.664,0.691-1.203,1.492-1.595,2.367l-0.067,0.143l-35.546,82.944c-1.112,2.593-0.846,5.571,0.707,7.927    c1.553,2.356,4.185,3.773,7.007,3.774c1.137,0.002,2.263-0.229,3.307-0.68l82.936-35.546l0.143-0.067    c0.877-0.388,1.678-0.928,2.367-1.595c0.076-0.076,0.185-0.101,0.26-0.185l288.978-288.961l55.254-55.262    c16.267-16.41,16.209-42.882-0.13-59.22c-16.339-16.338-42.81-16.396-59.22-0.13L432.665,28.655z M430.819,125.457l-35.605-35.605    l13.707-13.715l35.613,35.613L430.819,125.457z M383.345,101.72l35.605,35.605L141.849,414.435l-35.613-35.613L383.345,101.72z     M74.702,445.969l22.461-52.409l29.948,29.948L74.702,445.969z M480.105,76.171L456.36,99.916l-35.571-35.647l23.745-23.703    c6.362-6.362,15.634-8.846,24.324-6.518c8.69,2.329,15.478,9.116,17.807,17.807c2.329,8.69-0.156,17.963-6.518,24.324    L480.105,76.171z" data-original="#000000" class="" style="fill:#000000" data-old_color="#000000"/>
		<path d="M276.984,75.818H75.541c-4.636,0-8.393,3.758-8.393,8.393c0,4.636,3.758,8.393,8.393,8.393h201.443    c4.636,0,8.393-3.758,8.393-8.393C285.377,79.576,281.619,75.818,276.984,75.818z" data-original="#000000" class="" style="fill:#000000" data-old_color="#000000"/>
		<path d="M285.377,134.572c0-4.636-3.758-8.393-8.393-8.393H75.541c-4.636,0-8.393,3.758-8.393,8.393    c0,4.636,3.758,8.393,8.393,8.393h201.443C281.619,142.966,285.377,139.208,285.377,134.572z" data-original="#000000" class="" style="fill:#000000" data-old_color="#000000"/>
		<path d="M75.541,176.539c-4.636,0-8.393,3.758-8.393,8.393c0,4.636,3.758,8.393,8.393,8.393h151.082    c4.636,0,8.393-3.758,8.393-8.393c0-4.636-3.758-8.393-8.393-8.393H75.541z" data-original="#000000" class="" style="fill:#000000" data-old_color="#000000"/>
	</g>
</g></g> </svg>
